<?xml version="1.0" encoding="iso-8859-1"?>
<!-- Generator: Adobe Illustrator 19.0.0, SVG Export Plug-In . SVG Version: 6.00 Build 0)  -->
<svg version="1.1" id="Capa_1" xmlns="http://www.w3.org/2000/svg" xmlns:xlink="http://www.w3.org/1999/xlink" x="0px" y="0px"
	 viewBox="0 0 512 512" style="enable-background:new 0 0 512 512;" xml:space="preserve">
<g>
	<g>
		<path d="M437.333,0H74.667C45.248,0,21.333,23.936,21.333,53.333v405.333c0,29.397,23.915,53.333,53.333,53.333h362.667
			c29.419,0,53.333-23.936,53.333-53.333V53.333C490.667,23.936,466.752,0,437.333,0z M469.333,458.667c0,17.643-14.357,32-32,32
			H74.667c-17.643,0-32-14.357-32-32V53.333c0-17.643,14.357-32,32-32h362.667c17.643,0,32,14.357,32,32V458.667z"/>
	</g>
</g>
<g>
	<g>
		<path d="M416,64H96c-5.888,0-10.667,4.779-10.667,10.667v256c0,5.888,4.779,10.667,10.667,10.667h320
			c5.888,0,10.667-4.779,10.667-10.667v-256C426.667,68.779,421.888,64,416,64z M405.333,320H106.667V85.333h298.667V320z"/>
	</g>
</g>
<g>
	<g>
		<path d="M317.547,259.819l-106.667-128c-4.053-4.864-12.352-4.864-16.384,0l-106.667,128c-3.776,4.544-3.179,11.264,1.344,15.04
			c4.523,3.733,11.243,3.179,15.019-1.365l98.475-118.165l98.475,118.165c2.112,2.539,5.141,3.84,8.192,3.84
			c2.411,0,4.843-0.811,6.869-2.475C320.704,271.083,321.323,264.341,317.547,259.819z"/>
	</g>
</g>
<g>
	<g>
		<path d="M423.893,291.499L317.227,174.165c-1.941-2.155-4.715-3.435-7.637-3.499c-2.795-0.064-5.739,1.067-7.787,3.115l-32,32
			c-4.16,4.16-4.16,10.923,0,15.083s10.923,4.16,15.083,0l24.085-24.085l99.136,109.056c2.112,2.325,4.992,3.499,7.893,3.499
			c2.56,0,5.12-0.917,7.168-2.752C427.541,302.613,427.861,295.872,423.893,291.499z"/>
	</g>
</g>
<g>
</g>
<g>
</g>
<g>
</g>
<g>
</g>
<g>
</g>
<g>
</g>
<g>
</g>
<g>
</g>
<g>
</g>
<g>
</g>
<g>
</g>
<g>
</g>
<g>
</g>
<g>
</g>
<g>
</g>
</svg>
